# xmcd
#
# Track frame offsets: 
#        150
#        16558
#        47323
#        77053
#        127406
#        147732
#        200119
#        236927
#        256898
#        275455
#        292507
#
# Disc length: 4364 seconds
#
# Revision: 0
# Processed by: cddbd v1.5.2PL0 Copyright (c) Steve Scherf et al.
# Submitted via: ExactAudioCopy v0.99pb4
#
DISCID=9e110a0b
DTITLE=The Jimi Hendrix Experience - Voodoo Chile: The Jimi Hendrix Co
DTITLE=llection [CD2]
DYEAR=2001
DGENRE=Blues
TTITLE0=Fire (live)
TTITLE1=Hey Joe (live)
TTITLE2=I Don't Live Today (live)
TTITLE3=Hear my Train A' comin (live)
TTITLE4=Foxey Ladey (Live)
TTITLE5=Machine Gun (live)
TTITLE6=Red House (live)
TTITLE7=Freedom (live)
TTITLE8=Purple Haze (live)
TTITLE9=Star Spangled Banner (live)
TTITLE10=Wild Thing (live)
EXTD=
EXTT0=
EXTT1=
EXTT2=
EXTT3=
EXTT4=
EXTT5=
EXTT6=
EXTT7=
EXTT8=
EXTT9=
EXTT10=
PLAYORDER=
